<svg width="32" height="32" viewBox="0 0 32 32" fill="none" xmlns="http://www.w3.org/2000/svg">
  <rect width="32" height="32" rx="6" fill="url(#gradient)"/>
  <path d="M16 8C12.7 8 8 12.7 8 16C8 19.3 12.7 24 16 24C19.3 24 24 19.3 24 16C24 12.7 19.3 8 16 8ZM16 21C14.3 21 11 18.7 11 16C11 13.3 14.3 11 16 11C17.7 11 21 13.3 21 16C21 18.7 17.7 21 16 21Z" fill="white"/>
  <circle cx="16" cy="16" r="3" fill="white"/>
  <defs>
    <linearGradient id="gradient" x1="0" y1="0" x2="32" y2="32" gradientUnits="userSpaceOnUse">
      <stop stop-color="#3B82F6"/>
      <stop offset="1" stop-color="#1E40AF"/>
    </linearGradient>
  </defs>
</svg>